<?xml version="1.0" standalone="no"?>
<!DOCTYPE svg PUBLIC "-//W3C//DTD SVG 20010904//EN"
 "http://www.w3.org/TR/2001/REC-SVG-20010904/DTD/svg10.dtd">
<svg version="1.0" xmlns="http://www.w3.org/2000/svg"
 width="477.000000pt" height="477.000000pt" viewBox="0 0 477.000000 477.000000"
 preserveAspectRatio="xMidYMid meet">
<metadata>
Created by potrace 1.14, written by Peter Selinger 2001-2017
</metadata>
<g transform="translate(0.000000,477.000000) scale(0.100000,-0.100000)"
fill="#000000" stroke="none">
<path d="M2219 4745 c-2 -1 -35 -5 -74 -8 -420 -33 -881 -223 -1249 -515 -65
-51 -280 -261 -316 -308 -17 -21 -118 -155 -148 -194 -36 -47 -134 -221 -182
-323 -46 -96 -117 -278 -126 -322 -2 -11 -8 -31 -13 -45 -12 -33 -48 -199 -61
-280 -28 -183 -33 -462 -11 -635 46 -366 170 -705 369 -1015 20 -30 39 -56 44
-58 4 -2 8 -8 8 -14 0 -10 72 -104 135 -177 37 -43 198 -205 246 -246 19 -17
63 -53 99 -80 36 -28 67 -53 68 -57 2 -5 9 -8 15 -8 7 0 24 -10 39 -23 33 -29
269 -163 280 -160 4 2 8 -2 8 -7 0 -6 5 -10 11 -10 5 0 36 -12 67 -26 31 -14
75 -33 97 -41 22 -8 49 -19 60 -23 21 -9 128 -42 180 -55 43 -12 45 -12 48
-15 2 -2 27 -7 77 -15 19 -3 43 -8 52 -11 30 -9 120 -23 208 -31 133 -12 472
-6 565 12 28 5 68 12 125 21 82 14 307 76 335 93 6 3 15 6 21 7 20 3 218 92
289 130 122 64 326 199 386 254 9 8 45 40 79 70 35 30 82 75 104 99 23 24 47
49 54 55 6 6 43 47 80 91 233 274 413 630 491 975 48 212 59 330 56 580 -2
129 -6 246 -9 260 -3 14 -11 54 -16 90 -20 123 -78 342 -109 415 -5 11 -21 52
-36 90 -14 39 -55 125 -90 193 -88 168 -160 276 -304 452 -52 63 -223 230
-298 290 -228 184 -502 331 -776 419 -102 32 -292 76 -377 86 -30 4 -66 9 -80
11 -31 6 -417 14 -421 9z"/>
</g>
</svg>
